# xmcd
#
# Track frame offsets:
#	150
#	21531
#	63719
#	110448
#	129786
#	144453
#	183821
#	212314
#
# Disc length: 3075 seconds
#
# Revision: 0
# Processed by: cddbd v1.5.2PL0 Copyright (c) Steve Scherf et al.
# Submitted via: dBpowerAMP V4.0
#
DISCID=6b0c0108
DTITLE=Van Morrison - It's Too Late to Stop Now [CD2)
DYEAR=1974
DGENRE=Blues
TTITLE0=Bring It on Home
TTITLE1=Saint Dominic's Preview
TTITLE2=Take Your Hands Out of My Pocket
TTITLE3=Listen to the Lion
TTITLE4=Here Comes the Night
TTITLE5=Gloria
TTITLE6=Caravan
TTITLE7=Cyprus Avenue
EXTD=
EXTT0=
EXTT1=
EXTT2=
EXTT3=
EXTT4=
EXTT5=
EXTT6=
EXTT7=
PLAYORDER=
